<svg width="624" height="340" xmlns="http://www.w3.org/2000/svg" xmlns:xlink="http://www.w3.org/1999/xlink" xml:space="preserve" overflow="hidden"><defs><clipPath id="clip0"><rect x="0" y="0" width="624" height="340"/></clipPath></defs><g clip-path="url(#clip0)"><path d="M53.2124 37.0826 160.665 37.0826 169.6 46.0174 169.6 90.6903 53.2124 90.6903Z" stroke="#000000" stroke-width="1.08718" stroke-linecap="butt" stroke-linejoin="miter" stroke-miterlimit="8" stroke-opacity="1" fill="#D7E5F5" fill-rule="evenodd" fill-opacity="1" transform="matrix(1 0 0 1.00003 -12.9671 -24.5116)"/><text fill="#000000" fill-opacity="1" font-family="Calibri,Calibri_MSFontService,sans-serif" font-style="normal" font-variant="normal" font-weight="400" font-stretch="normal" font-size="83" text-anchor="start" direction="ltr" writing-mode="lr-tb" unicode-bidi="normal" text-decoration="none" transform="matrix(0.158135 0 0 0.15814 47.0002 46)">Experiments for T</text><text fill="#000000" fill-opacity="1" font-family="Calibri,Calibri_MSFontService,sans-serif" font-style="normal" font-variant="normal" font-weight="400" font-stretch="normal" font-size="55" text-anchor="start" direction="ltr" writing-mode="lr-tb" unicode-bidi="normal" text-decoration="none" transform="matrix(0.158135 0 0 0.15814 140.86 49)">0</text><path d="M0-0.815383 15.7252-0.815383 15.7252 14.1644 14.9099 13.349 25.7428 13.349 25.7428 14.9798 14.0945 14.9798 14.0945 0 14.9099 0.815383 0 0.815383ZM24.9274 11.7182 29.8196 14.1644 24.9274 16.6105Z" fill="#4472C4" fill-rule="nonzero" fill-opacity="1" transform="matrix(1.83697e-16 1.00003 1 -1.83702e-16 98.3599 66.1023)"/><path d="M72.9792 120.578 178.139 120.578 178.139 165.962 72.9792 165.962Z" stroke="#000000" stroke-width="1.08718" stroke-linecap="butt" stroke-linejoin="miter" stroke-miterlimit="8" stroke-opacity="1" fill="#F4D3D2" fill-rule="nonzero" fill-opacity="1" transform="matrix(1 0 0 1.00003 -12.9671 -24.5116)"/><text fill="#000000" fill-opacity="1" font-family="Calibri,Calibri_MSFontService,sans-serif" font-style="normal" font-variant="normal" font-weight="400" font-stretch="normal" font-size="83" text-anchor="start" direction="ltr" writing-mode="lr-tb" unicode-bidi="normal" text-decoration="none" transform="matrix(0.158135 0 0 0.15814 68.2935 123)">TPM parameters</text><path d="M0-0.815383 10.134-0.815383 10.134 5.70696e-05 9.31862-0.815326 14.5603-0.815326 14.5603 0.81544 8.50324 0.81544 8.50324 0 9.31862 0.815383 0 0.815383ZM13.7449-2.44609 18.6373 5.70696e-05 13.7449 2.4462Z" fill="#4472C4" fill-rule="nonzero" fill-opacity="1" transform="matrix(1 0 0 -1.00003 165.093 118.605)"/><path d="M196.799 116.466 304.093 116.466 313.028 125.401 313.028 170.074 196.799 170.074Z" stroke="#000000" stroke-width="1.08718" stroke-linecap="butt" stroke-linejoin="miter" stroke-miterlimit="8" stroke-opacity="1" fill="#F4D3D2" fill-rule="evenodd" fill-opacity="1" transform="matrix(1 0 0 1.00003 -12.9671 -24.5116)"/><text fill="#000000" fill-opacity="1" font-family="Calibri,Calibri_MSFontService,sans-serif" font-style="normal" font-variant="normal" font-weight="400" font-stretch="normal" font-size="73" text-anchor="start" direction="ltr" writing-mode="lr-tb" unicode-bidi="normal" text-decoration="none" transform="matrix(0.158135 0 0 0.15814 202.922 111)">TPM</text><text fill="#000000" fill-opacity="1" font-family="Calibri,Calibri_MSFontService,sans-serif" font-style="normal" font-variant="normal" font-weight="400" font-stretch="normal" font-size="73" text-anchor="start" direction="ltr" writing-mode="lr-tb" unicode-bidi="normal" text-decoration="none" transform="matrix(0.158135 0 0 0.15814 224.393 111)">-</text><text fill="#000000" fill-opacity="1" font-family="Calibri,Calibri_MSFontService,sans-serif" font-style="normal" font-variant="normal" font-weight="400" font-stretch="normal" font-size="73" text-anchor="start" direction="ltr" writing-mode="lr-tb" unicode-bidi="normal" text-decoration="none" transform="matrix(0.158135 0 0 0.15814 227.926 111)">generated </text><text fill="#000000" fill-opacity="1" font-family="Calibri,Calibri_MSFontService,sans-serif" font-style="normal" font-variant="normal" font-weight="400" font-stretch="normal" font-size="73" text-anchor="start" direction="ltr" writing-mode="lr-tb" unicode-bidi="normal" text-decoration="none" transform="matrix(0.158135 0 0 0.15814 198.072 125)">dataset for T</text><text fill="#000000" fill-opacity="1" font-family="Calibri,Calibri_MSFontService,sans-serif" font-style="normal" font-variant="normal" font-weight="400" font-stretch="normal" font-size="49" text-anchor="start" direction="ltr" writing-mode="lr-tb" unicode-bidi="normal" text-decoration="none" transform="matrix(0.158135 0 0 0.15814 257.957 127)">0 </text><text fill="#000000" fill-opacity="1" font-family="Calibri,Calibri_MSFontService,sans-serif" font-style="normal" font-variant="normal" font-weight="400" font-stretch="normal" font-size="73" text-anchor="start" direction="ltr" writing-mode="lr-tb" unicode-bidi="normal" text-decoration="none" transform="matrix(0.158135 0 0 0.15814 263.574 125)">and </text><text fill="#000000" fill-opacity="1" font-family="Calibri,Calibri_MSFontService,sans-serif" font-style="normal" font-variant="normal" font-weight="400" font-stretch="normal" font-size="73" text-anchor="start" direction="ltr" writing-mode="lr-tb" unicode-bidi="normal" text-decoration="none" transform="matrix(0.158135 0 0 0.15814 212.071 139)">(V</text><text fill="#000000" fill-opacity="1" font-family="Calibri,Calibri_MSFontService,sans-serif" font-style="normal" font-variant="normal" font-weight="400" font-stretch="normal" font-size="49" text-anchor="start" direction="ltr" writing-mode="lr-tb" unicode-bidi="normal" text-decoration="none" transform="matrix(0.158135 0 0 0.15814 222.219 141)">1</text><text fill="#000000" fill-opacity="1" font-family="Calibri,Calibri_MSFontService,sans-serif" font-style="normal" font-variant="normal" font-weight="400" font-stretch="normal" font-size="73" text-anchor="start" direction="ltr" writing-mode="lr-tb" unicode-bidi="normal" text-decoration="none" transform="matrix(0.158135 0 0 0.15814 226.114 139)">, ..., V</text><text fill="#000000" fill-opacity="1" font-family="Calibri,Calibri_MSFontService,sans-serif" font-style="normal" font-variant="normal" font-weight="400" font-stretch="normal" font-size="49" text-anchor="start" direction="ltr" writing-mode="lr-tb" unicode-bidi="normal" text-decoration="none" transform="matrix(0.158135 0 0 0.15814 252.478 141)">N</text><text fill="#000000" fill-opacity="1" font-family="Calibri,Calibri_MSFontService,sans-serif" font-style="normal" font-variant="normal" font-weight="400" font-stretch="normal" font-size="49" text-anchor="start" direction="ltr" writing-mode="lr-tb" unicode-bidi="normal" text-decoration="none" transform="matrix(0.158135 0 0 0.15814 257.461 141)">-</text><text fill="#000000" fill-opacity="1" font-family="Calibri,Calibri_MSFontService,sans-serif" font-style="normal" font-variant="normal" font-weight="400" font-stretch="normal" font-size="49" text-anchor="start" direction="ltr" writing-mode="lr-tb" unicode-bidi="normal" text-decoration="none" transform="matrix(0.158135 0 0 0.15814 259.817 141)">1</text><text fill="#000000" fill-opacity="1" font-family="Calibri,Calibri_MSFontService,sans-serif" font-style="normal" font-variant="normal" font-weight="400" font-stretch="normal" font-size="73" text-anchor="start" direction="ltr" writing-mode="lr-tb" unicode-bidi="normal" text-decoration="none" transform="matrix(0.158135 0 0 0.15814 263.712 139)">) </text><path d="M365.687 125.401C365.687 120.467 369.688 116.466 374.621 116.466L438.033 116.466C442.967 116.466 446.968 120.467 446.968 125.401L446.968 161.139C446.968 166.073 442.967 170.074 438.033 170.074L374.621 170.074C369.688 170.074 365.687 166.073 365.687 161.139Z" stroke="#000000" stroke-width="1.08718" stroke-linecap="butt" stroke-linejoin="miter" stroke-miterlimit="8" stroke-opacity="1" fill="#FEF4D2" fill-rule="evenodd" fill-opacity="1" transform="matrix(1 0 0 1.00003 -12.9671 -24.5116)"/><text fill="#000000" fill-opacity="1" font-family="Calibri,Calibri_MSFontService,sans-serif" font-style="normal" font-variant="normal" font-weight="400" font-stretch="normal" font-size="83" text-anchor="start" direction="ltr" writing-mode="lr-tb" unicode-bidi="normal" text-decoration="none" transform="matrix(0.158135 0 0 0.15814 368.223 115)">Base XGB </text><text fill="#000000" fill-opacity="1" font-family="Calibri,Calibri_MSFontService,sans-serif" font-style="normal" font-variant="normal" font-weight="400" font-stretch="normal" font-size="83" text-anchor="start" direction="ltr" writing-mode="lr-tb" unicode-bidi="normal" text-decoration="none" transform="matrix(0.158135 0 0 0.15814 376.377 131)">model</text><path d="M312.949 142.297 361.43 142.297 361.43 143.928 312.949 143.927ZM360.614 140.666 365.507 143.112 360.614 145.558Z" fill="#4472C4" fill-rule="nonzero" fill-opacity="1" transform="matrix(1 0 0 1.00003 -12.9671 -24.5116)"/><text fill="#000000" fill-opacity="1" font-family="Arial,Arial_MSFontService,sans-serif" font-style="normal" font-variant="normal" font-weight="400" font-stretch="normal" font-size="73" text-anchor="start" direction="ltr" writing-mode="lr-tb" unicode-bidi="normal" text-decoration="none" transform="matrix(0.158135 0 0 0.15814 302.888 114)">Pre</text><text fill="#000000" fill-opacity="1" font-family="Arial,Arial_MSFontService,sans-serif" font-style="normal" font-variant="normal" font-weight="400" font-stretch="normal" font-size="73" text-anchor="start" direction="ltr" writing-mode="lr-tb" unicode-bidi="normal" text-decoration="none" transform="matrix(0.158135 0 0 0.15814 320.917 114)">-</text><text fill="#000000" fill-opacity="1" font-family="Arial,Arial_MSFontService,sans-serif" font-style="normal" font-variant="normal" font-weight="400" font-stretch="normal" font-size="73" text-anchor="start" direction="ltr" writing-mode="lr-tb" unicode-bidi="normal" text-decoration="none" transform="matrix(0.158135 0 0 0.15814 324.814 114)">train</text><path d="M169.521 62.913 407.03 62.913 407.03 112.209 405.399 112.209 405.399 63.7283 406.215 64.5437 169.521 64.5437ZM408.66 111.393 406.215 116.286 403.769 111.393Z" fill="#4472C4" fill-rule="nonzero" fill-opacity="1" transform="matrix(1 0 0 1.00003 -12.9671 -24.5116)"/><text fill="#000000" fill-opacity="1" font-family="Arial,Arial_MSFontService,sans-serif" font-style="normal" font-variant="normal" font-weight="400" font-stretch="normal" font-size="73" text-anchor="start" direction="ltr" writing-mode="lr-tb" unicode-bidi="normal" text-decoration="none" transform="matrix(0.158135 0 0 0.15814 249.078 34)">Fine</text><text fill="#000000" fill-opacity="1" font-family="Arial,Arial_MSFontService,sans-serif" font-style="normal" font-variant="normal" font-weight="400" font-stretch="normal" font-size="73" text-anchor="start" direction="ltr" writing-mode="lr-tb" unicode-bidi="normal" text-decoration="none" transform="matrix(0.158135 0 0 0.15814 271.546 34)">-</text><text fill="#000000" fill-opacity="1" font-family="Arial,Arial_MSFontService,sans-serif" font-style="normal" font-variant="normal" font-weight="400" font-stretch="normal" font-size="73" text-anchor="start" direction="ltr" writing-mode="lr-tb" unicode-bidi="normal" text-decoration="none" transform="matrix(0.158135 0 0 0.15814 275.442 34)">tune</text><path d="M446.889 142.297 465.922 142.297 465.922 143.928 446.889 143.927ZM465.108 140.666 469.999 143.112 465.108 145.558Z" fill="#4472C4" fill-rule="nonzero" fill-opacity="1" transform="matrix(1 0 0 1.00003 -12.9671 -24.5116)"/><path d="M469.265 143.191C469.265 124.676 497.478 109.666 532.282 109.666 567.086 109.666 595.299 124.676 595.299 143.191 595.299 161.706 567.086 176.716 532.282 176.716 497.478 176.716 469.265 161.706 469.265 143.191Z" stroke="#000000" stroke-width="1.08718" stroke-linecap="butt" stroke-linejoin="miter" stroke-miterlimit="8" stroke-opacity="1" fill="#E0EDD9" fill-rule="evenodd" fill-opacity="1" transform="matrix(1 0 0 1.00003 -12.9671 -24.5116)"/><text fill="#000000" fill-opacity="1" font-family="Calibri,Calibri_MSFontService,sans-serif" font-style="normal" font-variant="normal" font-weight="400" font-stretch="normal" font-size="83" text-anchor="start" direction="ltr" writing-mode="lr-tb" unicode-bidi="normal" text-decoration="none" transform="matrix(0.158135 0 0 0.15814 497.157 107)">Transfer </text><text fill="#000000" fill-opacity="1" font-family="Calibri,Calibri_MSFontService,sans-serif" font-style="normal" font-variant="normal" font-weight="400" font-stretch="normal" font-size="83" text-anchor="start" direction="ltr" writing-mode="lr-tb" unicode-bidi="normal" text-decoration="none" transform="matrix(0.158135 0 0 0.15814 497.609 123)">learning </text><text fill="#000000" fill-opacity="1" font-family="Calibri,Calibri_MSFontService,sans-serif" font-style="normal" font-variant="normal" font-weight="400" font-stretch="normal" font-size="83" text-anchor="start" direction="ltr" writing-mode="lr-tb" unicode-bidi="normal" text-decoration="none" transform="matrix(0.158135 0 0 0.15814 502.367 139)">model</text><path d="M101.127 222.575 264.533 222.575 273.494 231.536 273.494 276.341 101.127 276.341Z" stroke="#000000" stroke-width="1.08718" stroke-linecap="butt" stroke-linejoin="miter" stroke-miterlimit="8" stroke-opacity="1" fill="#D7E5F5" fill-rule="evenodd" fill-opacity="1" transform="matrix(1 0 0 1.00003 -12.9671 -24.5116)"/><text fill="#000000" fill-opacity="1" font-family="Calibri,Calibri_MSFontService,sans-serif" font-style="normal" font-variant="normal" font-weight="400" font-stretch="normal" font-size="83" text-anchor="start" direction="ltr" writing-mode="lr-tb" unicode-bidi="normal" text-decoration="none" transform="matrix(0.158135 0 0 0.15814 98.2503 232)">Experiments for (T</text><text fill="#000000" fill-opacity="1" font-family="Calibri,Calibri_MSFontService,sans-serif" font-style="normal" font-variant="normal" font-weight="400" font-stretch="normal" font-size="55" text-anchor="start" direction="ltr" writing-mode="lr-tb" unicode-bidi="normal" text-decoration="none" transform="matrix(0.158135 0 0 0.15814 196.097 235)">1</text><text fill="#000000" fill-opacity="1" font-family="Calibri,Calibri_MSFontService,sans-serif" font-style="normal" font-variant="normal" font-weight="400" font-stretch="normal" font-size="83" text-anchor="start" direction="ltr" writing-mode="lr-tb" unicode-bidi="normal" text-decoration="none" transform="matrix(0.158135 0 0 0.15814 200.536 232)">, ..., T</text><text fill="#000000" fill-opacity="1" font-family="Calibri,Calibri_MSFontService,sans-serif" font-style="normal" font-variant="normal" font-weight="400" font-stretch="normal" font-size="55" text-anchor="start" direction="ltr" writing-mode="lr-tb" unicode-bidi="normal" text-decoration="none" transform="matrix(0.158135 0 0 0.15814 229.164 235)">N</text><text fill="#000000" fill-opacity="1" font-family="Calibri,Calibri_MSFontService,sans-serif" font-style="normal" font-variant="normal" font-weight="400" font-stretch="normal" font-size="55" text-anchor="start" direction="ltr" writing-mode="lr-tb" unicode-bidi="normal" text-decoration="none" transform="matrix(0.158135 0 0 0.15814 234.781 235)">-</text><text fill="#000000" fill-opacity="1" font-family="Calibri,Calibri_MSFontService,sans-serif" font-style="normal" font-variant="normal" font-weight="400" font-stretch="normal" font-size="55" text-anchor="start" direction="ltr" writing-mode="lr-tb" unicode-bidi="normal" text-decoration="none" transform="matrix(0.158135 0 0 0.15814 237.409 235)">1</text><text fill="#000000" fill-opacity="1" font-family="Calibri,Calibri_MSFontService,sans-serif" font-style="normal" font-variant="normal" font-weight="400" font-stretch="normal" font-size="83" text-anchor="start" direction="ltr" writing-mode="lr-tb" unicode-bidi="normal" text-decoration="none" transform="matrix(0.158135 0 0 0.15814 241.848 232)">)</text><path d="M211.663 304.805 339.357 304.805 348.292 313.739 348.292 358.413 211.663 358.413Z" stroke="#000000" stroke-width="1.08718" stroke-linecap="butt" stroke-linejoin="miter" stroke-miterlimit="8" stroke-opacity="1" fill="#F4D3D2" fill-rule="evenodd" fill-opacity="1" transform="matrix(1 0 0 1.00003 -12.9671 -24.5116)"/><text fill="#000000" fill-opacity="1" font-family="Calibri,Calibri_MSFontService,sans-serif" font-style="normal" font-variant="normal" font-weight="400" font-stretch="normal" font-size="73" text-anchor="start" direction="ltr" writing-mode="lr-tb" unicode-bidi="normal" text-decoration="none" transform="matrix(0.158135 0 0 0.15814 209.024 306)">TPM</text><text fill="#000000" fill-opacity="1" font-family="Calibri,Calibri_MSFontService,sans-serif" font-style="normal" font-variant="normal" font-weight="400" font-stretch="normal" font-size="73" text-anchor="start" direction="ltr" writing-mode="lr-tb" unicode-bidi="normal" text-decoration="none" transform="matrix(0.158135 0 0 0.15814 230.496 306)">-</text><text fill="#000000" fill-opacity="1" font-family="Calibri,Calibri_MSFontService,sans-serif" font-style="normal" font-variant="normal" font-weight="400" font-stretch="normal" font-size="73" text-anchor="start" direction="ltr" writing-mode="lr-tb" unicode-bidi="normal" text-decoration="none" transform="matrix(0.158135 0 0 0.15814 234.028 306)">generated dataset </text><text fill="#000000" fill-opacity="1" font-family="Calibri,Calibri_MSFontService,sans-serif" font-style="normal" font-variant="normal" font-weight="400" font-stretch="normal" font-size="73" text-anchor="start" direction="ltr" writing-mode="lr-tb" unicode-bidi="normal" text-decoration="none" transform="matrix(0.158135 0 0 0.15814 229.909 320)">for (T</text><text fill="#000000" fill-opacity="1" font-family="Calibri,Calibri_MSFontService,sans-serif" font-style="normal" font-variant="normal" font-weight="400" font-stretch="normal" font-size="49" text-anchor="start" direction="ltr" writing-mode="lr-tb" unicode-bidi="normal" text-decoration="none" transform="matrix(0.158135 0 0 0.15814 255.457 323)">1</text><text fill="#000000" fill-opacity="1" font-family="Calibri,Calibri_MSFontService,sans-serif" font-style="normal" font-variant="normal" font-weight="400" font-stretch="normal" font-size="73" text-anchor="start" direction="ltr" writing-mode="lr-tb" unicode-bidi="normal" text-decoration="none" transform="matrix(0.158135 0 0 0.15814 259.352 320)">, ..., T</text><text fill="#000000" fill-opacity="1" font-family="Calibri,Calibri_MSFontService,sans-serif" font-style="normal" font-variant="normal" font-weight="400" font-stretch="normal" font-size="49" text-anchor="start" direction="ltr" writing-mode="lr-tb" unicode-bidi="normal" text-decoration="none" transform="matrix(0.158135 0 0 0.15814 284.72 323)">N</text><text fill="#000000" fill-opacity="1" font-family="Calibri,Calibri_MSFontService,sans-serif" font-style="normal" font-variant="normal" font-weight="400" font-stretch="normal" font-size="49" text-anchor="start" direction="ltr" writing-mode="lr-tb" unicode-bidi="normal" text-decoration="none" transform="matrix(0.158135 0 0 0.15814 289.703 323)">-</text><text fill="#000000" fill-opacity="1" font-family="Calibri,Calibri_MSFontService,sans-serif" font-style="normal" font-variant="normal" font-weight="400" font-stretch="normal" font-size="49" text-anchor="start" direction="ltr" writing-mode="lr-tb" unicode-bidi="normal" text-decoration="none" transform="matrix(0.158135 0 0 0.15814 292.059 323)">1</text><text fill="#000000" fill-opacity="1" font-family="Calibri,Calibri_MSFontService,sans-serif" font-style="normal" font-variant="normal" font-weight="400" font-stretch="normal" font-size="73" text-anchor="start" direction="ltr" writing-mode="lr-tb" unicode-bidi="normal" text-decoration="none" transform="matrix(0.158135 0 0 0.15814 295.954 320)">)</text><path d="M405.695 313.739C405.695 308.806 409.696 304.805 414.629 304.805L478.042 304.805C482.975 304.805 486.976 308.806 486.976 313.739L486.976 349.478C486.976 354.412 482.975 358.413 478.042 358.413L414.629 358.413C409.696 358.413 405.695 354.412 405.695 349.478Z" stroke="#000000" stroke-width="1.08718" stroke-linecap="butt" stroke-linejoin="miter" stroke-miterlimit="8" stroke-opacity="1" fill="#FEF4D2" fill-rule="evenodd" fill-opacity="1" transform="matrix(1 0 0 1.00003 -12.9671 -24.5116)"/><text fill="#000000" fill-opacity="1" font-family="Calibri,Calibri_MSFontService,sans-serif" font-style="normal" font-variant="normal" font-weight="400" font-stretch="normal" font-size="83" text-anchor="start" direction="ltr" writing-mode="lr-tb" unicode-bidi="normal" text-decoration="none" transform="matrix(0.158135 0 0 0.15814 408.291 304)">Base XGB </text><text fill="#000000" fill-opacity="1" font-family="Calibri,Calibri_MSFontService,sans-serif" font-style="normal" font-variant="normal" font-weight="400" font-stretch="normal" font-size="83" text-anchor="start" direction="ltr" writing-mode="lr-tb" unicode-bidi="normal" text-decoration="none" transform="matrix(0.158135 0 0 0.15814 416.445 319)">model</text><path d="M348.213 330.793 401.594 330.793 401.594 332.425 348.213 332.425ZM400.778 329.162 405.671 331.609 400.778 334.055Z" fill="#4472C4" fill-rule="nonzero" fill-opacity="1" transform="matrix(1 0 0 1.00003 -12.9671 -24.5116)"/><path d="M273.415 248.563 447.076 248.563 447.076 300.622 445.445 300.622 445.445 249.379 446.26 250.195 273.415 250.195ZM448.706 299.808 446.26 304.699 443.815 299.808Z" fill="#4472C4" fill-rule="nonzero" fill-opacity="1" transform="matrix(1 0 0 1.00003 -12.9671 -24.5116)"/><text fill="#000000" fill-opacity="1" font-family="Arial,Arial_MSFontService,sans-serif" font-style="normal" font-variant="normal" font-weight="400" font-stretch="normal" font-size="73" text-anchor="start" direction="ltr" writing-mode="lr-tb" unicode-bidi="normal" text-decoration="none" transform="matrix(0.158135 0 0 0.15814 322.628 222)">Fine</text><text fill="#000000" fill-opacity="1" font-family="Arial,Arial_MSFontService,sans-serif" font-style="normal" font-variant="normal" font-weight="400" font-stretch="normal" font-size="73" text-anchor="start" direction="ltr" writing-mode="lr-tb" unicode-bidi="normal" text-decoration="none" transform="matrix(0.158135 0 0 0.15814 345.098 222)">-</text><text fill="#000000" fill-opacity="1" font-family="Arial,Arial_MSFontService,sans-serif" font-style="normal" font-variant="normal" font-weight="400" font-stretch="normal" font-size="73" text-anchor="start" direction="ltr" writing-mode="lr-tb" unicode-bidi="normal" text-decoration="none" transform="matrix(0.158135 0 0 0.15814 348.992 222)">tune 1</text><path d="M487.055 330.635 506.088 330.635 506.088 332.267 487.055 332.267ZM505.274 329.004 510.165 331.451 505.274 333.897Z" fill="#4472C4" fill-rule="nonzero" fill-opacity="1" transform="matrix(1 0 0 1.00003 -12.9671 -24.5116)"/><path d="M510.222 329.948C510.222 311.434 538.435 296.424 573.239 296.424 608.043 296.424 636.255 311.434 636.255 329.948 636.255 348.463 608.043 363.473 573.239 363.473 538.435 363.473 510.222 348.463 510.222 329.948Z" stroke="#000000" stroke-width="1.08718" stroke-linecap="butt" stroke-linejoin="miter" stroke-miterlimit="8" stroke-opacity="1" fill="#E0EDD9" fill-rule="evenodd" fill-opacity="1" transform="matrix(1 0 0 1.00003 -12.9671 -24.5116)"/><text fill="#000000" fill-opacity="1" font-family="Calibri,Calibri_MSFontService,sans-serif" font-style="normal" font-variant="normal" font-weight="400" font-stretch="normal" font-size="83" text-anchor="start" direction="ltr" writing-mode="lr-tb" unicode-bidi="normal" text-decoration="none" transform="matrix(0.158135 0 0 0.15814 538.166 294)">Transfer </text><text fill="#000000" fill-opacity="1" font-family="Calibri,Calibri_MSFontService,sans-serif" font-style="normal" font-variant="normal" font-weight="400" font-stretch="normal" font-size="83" text-anchor="start" direction="ltr" writing-mode="lr-tb" unicode-bidi="normal" text-decoration="none" transform="matrix(0.158135 0 0 0.15814 538.62 310)">learning </text><text fill="#000000" fill-opacity="1" font-family="Calibri,Calibri_MSFontService,sans-serif" font-style="normal" font-variant="normal" font-weight="400" font-stretch="normal" font-size="83" text-anchor="start" direction="ltr" writing-mode="lr-tb" unicode-bidi="normal" text-decoration="none" transform="matrix(0.158135 0 0 0.15814 543.377 325)">model</text><text fill="#000000" fill-opacity="1" font-family="Arial,Arial_MSFontService,sans-serif" font-style="normal" font-variant="normal" font-weight="700" font-stretch="normal" font-size="110" text-anchor="start" direction="ltr" writing-mode="lr-tb" unicode-bidi="normal" text-decoration="none" transform="matrix(0.158135 0 0 0.15814 10.9502 23)">a</text><text fill="#000000" fill-opacity="1" font-family="Arial,Arial_MSFontService,sans-serif" font-style="normal" font-variant="normal" font-weight="700" font-stretch="normal" font-size="110" text-anchor="start" direction="ltr" writing-mode="lr-tb" unicode-bidi="normal" text-decoration="none" transform="matrix(0.158135 0 0 0.15814 60.5182 211)">b</text><path d="M0-0.815383 16.3858-0.815383 16.3858 16.659 15.5704 15.8435 27.0638 15.8435 27.0638 17.4744 14.755 17.4744 14.755 0 15.5704 0.815383 0 0.815383ZM26.2485 14.2128 31.1407 16.659 26.2485 19.1051Z" fill="#4472C4" fill-rule="nonzero" fill-opacity="1" transform="matrix(1.83697e-16 1.00003 1 -1.83702e-16 110.536 251.758)"/><path d="M87.6858 307.493 192.845 307.493 192.845 352.878 87.6858 352.878Z" stroke="#000000" stroke-width="1.08718" stroke-linecap="butt" stroke-linejoin="miter" stroke-miterlimit="8" stroke-opacity="1" fill="#F4D3D2" fill-rule="nonzero" fill-opacity="1" transform="matrix(1 0 0 1.00003 -12.9671 -24.5116)"/><text fill="#000000" fill-opacity="1" font-family="Calibri,Calibri_MSFontService,sans-serif" font-style="normal" font-variant="normal" font-weight="400" font-stretch="normal" font-size="83" text-anchor="start" direction="ltr" writing-mode="lr-tb" unicode-bidi="normal" text-decoration="none" transform="matrix(0.158135 0 0 0.15814 83.0083 310)">TPM parameters</text><path d="M0-0.815383 10.134-0.815383 10.134 5.70696e-05 9.31862-0.815326 14.5603-0.815326 14.5603 0.81544 8.50324 0.81544 8.50324 0 9.31862 0.815383 0 0.815383ZM13.7449-2.44609 18.6373 5.70696e-05 13.7449 2.4462Z" fill="#4472C4" fill-rule="nonzero" fill-opacity="1" transform="matrix(1 0 0 -1.00003 179.799 305.684)"/><path d="M469.265 209.924 596.959 209.924 605.894 218.859 605.894 263.532 469.265 263.532Z" stroke="#000000" stroke-width="1.08718" stroke-linecap="butt" stroke-linejoin="miter" stroke-miterlimit="8" stroke-opacity="1" fill="#F4D3D2" fill-rule="evenodd" fill-opacity="1" transform="matrix(1 0 0 1.00003 -12.9671 -24.5116)"/><text fill="#000000" fill-opacity="1" font-family="Calibri,Calibri_MSFontService,sans-serif" font-style="normal" font-variant="normal" font-weight="400" font-stretch="normal" font-size="73" text-anchor="start" direction="ltr" writing-mode="lr-tb" unicode-bidi="normal" text-decoration="none" transform="matrix(0.158135 0 0 0.15814 469.534 211)">EM</text><text fill="#000000" fill-opacity="1" font-family="Calibri,Calibri_MSFontService,sans-serif" font-style="normal" font-variant="normal" font-weight="400" font-stretch="normal" font-size="73" text-anchor="start" direction="ltr" writing-mode="lr-tb" unicode-bidi="normal" text-decoration="none" transform="matrix(0.158135 0 0 0.15814 485.117 211)">-</text><text fill="#000000" fill-opacity="1" font-family="Calibri,Calibri_MSFontService,sans-serif" font-style="normal" font-variant="normal" font-weight="400" font-stretch="normal" font-size="73" text-anchor="start" direction="ltr" writing-mode="lr-tb" unicode-bidi="normal" text-decoration="none" transform="matrix(0.158135 0 0 0.15814 488.651 211)">generated dataset </text><text fill="#000000" fill-opacity="1" font-family="Calibri,Calibri_MSFontService,sans-serif" font-style="normal" font-variant="normal" font-weight="400" font-stretch="normal" font-size="73" text-anchor="start" direction="ltr" writing-mode="lr-tb" unicode-bidi="normal" text-decoration="none" transform="matrix(0.158135 0 0 0.15814 508.762 225)">for T</text><text fill="#000000" fill-opacity="1" font-family="Calibri,Calibri_MSFontService,sans-serif" font-style="normal" font-variant="normal" font-weight="400" font-stretch="normal" font-size="49" text-anchor="start" direction="ltr" writing-mode="lr-tb" unicode-bidi="normal" text-decoration="none" transform="matrix(0.158135 0 0 0.15814 530.778 228)">N</text><path d="M538.273 263.453 538.273 284.867 446.256 284.867 447.072 284.053 447.072 300.575 445.44 300.575 445.44 283.237 537.459 283.237 536.643 284.053 536.643 263.453ZM448.703 299.76 446.256 304.651 443.81 299.76Z" fill="#4472C4" fill-rule="nonzero" fill-opacity="1" transform="matrix(1 0 0 1.00003 -12.9671 -24.5116)"/><text fill="#000000" fill-opacity="1" font-family="Arial,Arial_MSFontService,sans-serif" font-style="normal" font-variant="normal" font-weight="400" font-stretch="normal" font-size="73" text-anchor="start" direction="ltr" writing-mode="lr-tb" unicode-bidi="normal" text-decoration="none" transform="matrix(0.158135 0 0 0.15814 446.75 257)">Fine</text><text fill="#000000" fill-opacity="1" font-family="Arial,Arial_MSFontService,sans-serif" font-style="normal" font-variant="normal" font-weight="400" font-stretch="normal" font-size="73" text-anchor="start" direction="ltr" writing-mode="lr-tb" unicode-bidi="normal" text-decoration="none" transform="matrix(0.158135 0 0 0.15814 469.218 257)">-</text><text fill="#000000" fill-opacity="1" font-family="Arial,Arial_MSFontService,sans-serif" font-style="normal" font-variant="normal" font-weight="400" font-stretch="normal" font-size="73" text-anchor="start" direction="ltr" writing-mode="lr-tb" unicode-bidi="normal" text-decoration="none" transform="matrix(0.158135 0 0 0.15814 473.114 257)">tune 2</text><text fill="#000000" fill-opacity="1" font-family="Arial,Arial_MSFontService,sans-serif" font-style="normal" font-variant="normal" font-weight="400" font-stretch="normal" font-size="73" text-anchor="start" direction="ltr" writing-mode="lr-tb" unicode-bidi="normal" text-decoration="none" transform="matrix(0.158135 0 0 0.15814 343.238 304)">Pre</text><text fill="#000000" fill-opacity="1" font-family="Arial,Arial_MSFontService,sans-serif" font-style="normal" font-variant="normal" font-weight="400" font-stretch="normal" font-size="73" text-anchor="start" direction="ltr" writing-mode="lr-tb" unicode-bidi="normal" text-decoration="none" transform="matrix(0.158135 0 0 0.15814 361.267 304)">-</text><text fill="#000000" fill-opacity="1" font-family="Arial,Arial_MSFontService,sans-serif" font-style="normal" font-variant="normal" font-weight="400" font-stretch="normal" font-size="73" text-anchor="start" direction="ltr" writing-mode="lr-tb" unicode-bidi="normal" text-decoration="none" transform="matrix(0.158135 0 0 0.15814 365.163 304)">train</text></g></svg>